<svg xmlns="http://www.w3.org/2000/svg" width="1280" height="485"><defs><linearGradient id="fill0" x1=".5" x2=".5" y1="0" y2="1" spreadMethod="reflect"><stop offset="0" stop-color="#A8B7DF"/><stop offset=".5" stop-color="#9AABD9"/><stop offset="1" stop-color="#879ED7"/></linearGradient><linearGradient id="fill1" x1=".5" x2=".5" y1="0" y2="1" spreadMethod="reflect"><stop offset="0" stop-color="#B5D5A7"/><stop offset=".5" stop-color="#AACE99"/><stop offset="1" stop-color="#9CCA86"/></linearGradient><linearGradient id="fill2" x1=".5" x2=".5" y1="0" y2="1" spreadMethod="reflect"><stop offset="0" stop-color="#B5D5A7"/><stop offset=".5" stop-color="#AACE99"/><stop offset="1" stop-color="#9CCA86"/></linearGradient><linearGradient id="fill3" x1=".5" x2=".5" y1="0" y2="1" spreadMethod="reflect"><stop offset="0" stop-color="#B5D5A7"/><stop offset=".5" stop-color="#AACE99"/><stop offset="1" stop-color="#9CCA86"/></linearGradient></defs><g><title>Layer 1</title><rect id="svg_2" width="1280" height="484" x="-2" y="1" fill="#FFF" stroke="null"/><path id="svg_3" fill="url(#fill0)" fill-rule="evenodd" stroke="#4472C4" stroke-miterlimit="8" stroke-width=".667" d="m237.5,73.5235c0,-4.9835 4.04,-9.0234 9.023,-9.0234l811.957,0c4.98,0 9.02,4.0399 9.02,9.0234l0,384.9535c0,4.983 -4.04,9.023 -9.02,9.023l-811.957,0c-4.983,0 -9.023,-4.04 -9.023,-9.023l0,-384.9535z"/><text id="svg_4" x="567.338" y="94" stroke="null" font-family="Calibri,Calibri_MSFontService,sans-serif" font-size="24" font-weight="400">.NET App Process</text><rect id="svg_5" width="178" height="67" x="322.5" y="384.5" fill="#FFF" stroke="#4472C4" stroke-miterlimit="8" stroke-width="1.333"/><text id="svg_6" x="374.881" y="425" stroke="null" font-family="Calibri,Calibri_MSFontService,sans-serif" font-size="24" font-weight="400">ILogger</text><rect id="svg_7" width="178" height="67" x="522.5" y="383.5" fill="#FFF" stroke="#4472C4" stroke-miterlimit="8" stroke-width="1.333"/><text id="svg_8" x="580.581" y="424" stroke="null" font-family="Calibri,Calibri_MSFontService,sans-serif" font-size="24" font-weight="400">Meter</text><rect id="svg_9" width="178" height="67" x="722.5" y="384.5" fill="#FFF" stroke="#4472C4" stroke-miterlimit="8" stroke-width="1.333"/><text id="svg_10" x="774.467" y="425" stroke="null" font-family="Calibri,Calibri_MSFontService,sans-serif" font-size="24" font-weight="400">Activity</text><rect id="svg_11" width="255" height="38" x="793.5" y="201.5" fill="#FFF" stroke="#4472C4" stroke-miterlimit="8" stroke-width="1.333"/><text id="svg_12" x="816.483" y="227" stroke="null" font-family="Calibri,Calibri_MSFontService,sans-serif" font-size="24" font-weight="400">Prometheu</text><text id="svg_13" x="925.803" y="227" stroke="null" font-family="Calibri,Calibri_MSFontService,sans-serif" font-size="24" font-weight="400">s</text><text id="svg_14" x="940.636" y="227" stroke="null" font-family="Calibri,Calibri_MSFontService,sans-serif" font-size="24" font-weight="400">Exporter</text><rect id="svg_15" width="255" height="38" x="794.5" y="300.5" fill="#FFF" stroke="#4472C4" stroke-miterlimit="8" stroke-width="1.333"/><text id="svg_16" x="808.785" y="326" stroke="null" font-family="Calibri,Calibri_MSFontService,sans-serif" font-size="24" font-weight="400">AzureMonitor</text><text id="svg_17" x="950.285" y="326" stroke="null" font-family="Calibri,Calibri_MSFontService,sans-serif" font-size="24" font-weight="400">Exporter</text><rect id="svg_18" width="139" height="39" x="1116.5" y="152.5" fill="url(#fill1)" stroke="#70AD47" stroke-miterlimit="8" stroke-width=".667"/><text id="svg_19" x="1126.31" y="179" stroke="null" font-family="Calibri,Calibri_MSFontService,sans-serif" font-size="24" font-weight="400">Prometheus</text><rect id="svg_20" width="82" height="39" x="1143.5" y="249.5" fill="url(#fill2)" stroke="#70AD47" stroke-miterlimit="8" stroke-width=".667"/><text id="svg_21" x="1152.71" y="276" stroke="null" font-family="Calibri,Calibri_MSFontService,sans-serif" font-size="24" font-weight="400">Jaeger</text><rect id="svg_22" width="162" height="39" x="1105.5" y="324.5" fill="url(#fill3)" stroke="#70AD47" stroke-miterlimit="8" stroke-width=".667"/><text id="svg_23" x="1114.89" y="351" stroke="null" font-family="Calibri,Calibri_MSFontService,sans-serif" font-size="24" font-weight="400">Azure Monitor</text><path id="svg_24" fill="#4472C4" stroke="null" d="m1049.63,319.195l49.33,21.742l-0.27,0.61l-49.32,-21.742l0.26,-0.61zm49.59,17.849l5.71,6.887l-8.93,0.434l3.22,-7.321z"/><path id="svg_25" fill="#4472C4" stroke="null" d="m759.68068,288.58148l20.31988,32.40751l-0.67582,0.34151l-20.31988,-32.40751l0.67582,-0.34151zm23.27557,29.31517l0.51064,9.32926l-8.61929,-5.23015l8.10864,-4.09911z" transform="rotate(-25.5603 771.236 307.904)"/><path id="svg_26" fill="#4472C4" stroke="null" d="m702.5,255.167l13.792,0l0,0.666l-13.792,0l0,-0.666zm12.459,-3.667l8,4l-8,4l0,-8z"/><path id="svg_27" fill="#4472C4" stroke="null" d="m1049.5,269.167l86.97,0l0,0.666l-86.97,0l0,-0.666zm85.63,-3.667l8,4l-8,4l0,-8z"/><path id="svg_28" fill="#4472C4" stroke="null" d="m1048.69359,220.24035l62.51161,-44.59696l-0.3871,-0.5427l-62.51169,44.59694l0.38718,0.54272zm63.55571,-40.83766l4.1895,-7.9025l-8.8356,1.3899l4.6461,6.5126z"/><path id="svg_29" fill="#4472C4" stroke="null" d="m454.66979,272.10536l14.49524,19.22725l-0.52181,0.4443l-14.49524,-19.22831l0.52181,-0.44323zm16.53129,15.67714l1.88353,9.31743l-8.15025,-3.9912l6.26672,-5.32622z" transform="rotate(-51.9121 463.616 284.603)"/><path id="svg_30" fill="#4472C4" stroke="null" d="m411.62911,385.09431l82.60949,-34.70492l-0.2582,-0.6147l-82.60951,34.70498l0.25822,0.61464zm82.80039,-30.80802l5.8263,-6.7863l-8.9248,-0.5893l3.0985,7.3756z"/><rect id="svg_31" width="272" height="113" x="479.5" y="226.5" fill="#FFF" stroke="#4472C4" stroke-miterlimit="8" stroke-width="1.333"/><text id="svg_32" x="515.342" y="290" stroke="null" font-family="Calibri,Calibri_MSFontService,sans-serif" font-size="24" font-weight="400">OpenTelemetry SDK</text><rect id="svg_33" width="189" height="66" x="272.5" y="246.5" fill="#FFF" stroke="#4472C4" stroke-miterlimit="8" stroke-width="1.333"/><text id="svg_34" x="287.419" y="272" stroke="null" font-family="Calibri,Calibri_MSFontService,sans-serif" font-size="24" font-weight="400">Instrumentation</text><text id="svg_35" x="320.959" y="301" stroke="null" font-family="Calibri,Calibri_MSFontService,sans-serif" font-size="24" font-weight="400">Libraries</text><rect id="svg_36" width="272" height="67" x="479.5" y="130.5" fill="#FFF" stroke="#4472C4" stroke-miterlimit="8" stroke-width="1.333"/><text id="svg_37" x="520.661" y="157" stroke="null" font-family="Calibri,Calibri_MSFontService,sans-serif" font-size="24" font-weight="400">Azure Monitor</text><text id="svg_38" x="667.661" y="157" stroke="null" font-family="Calibri,Calibri_MSFontService,sans-serif" font-size="24" font-weight="400">OTel</text><text id="svg_39" x="586.261" y="186" stroke="null" font-family="Calibri,Calibri_MSFontService,sans-serif" font-size="24" font-weight="400">Distro</text><path id="svg_40" fill="#4472C4" stroke="null" d="m811.148,384.18l-71.884,-37.313l0.307,-0.591l71.884,37.313l-0.307,0.591zm-72.39,-33.444l-5.258,-7.236l8.943,0.135l-3.685,7.101z"/><path id="svg_41" fill="#4472C4" stroke="null" d="m611.83333,383.10199l0.00009,-32.9353l-0.66667,0l-0.00008,32.9353l0.66666,0zm3.66675,-31.602l-3.99998,-8l-4.00002,8l8,0z"/><path id="svg_42" fill="#4472C4" stroke="null" d="m751.77718,282.98017l37.91062,-56.75176l-0.5544,-0.3703l-37.91058,56.75174l0.55436,0.37032zm40.21892,-53.60636l1.1177,-8.8741l-7.77,4.4304l6.6523,4.4437z"/><path id="svg_43" fill="#4472C4" stroke="null" d="m604.833,199.5l0,12.24l-0.666,0l0,-12.24l0.666,0zm3.667,10.906l-4,8l-4,-8l8,0z"/><text id="svg_44" x="47.069" y="409" stroke="null" font-family="Calibri,Calibri_MSFontService,sans-serif" font-size="24" font-weight="400">.NET SDK</text><text id="svg_45" x="3.782" y="438" stroke="null" font-family="Calibri,Calibri_MSFontService,sans-serif" font-size="24" font-weight="400">Observability APIs</text><text id="svg_46" x="61.891" y="276" stroke="null" font-family="Calibri,Calibri_MSFontService,sans-serif" font-size="24" font-weight="400">OTel</text><text id="svg_47" x="109.611" y="276" stroke="null" font-family="Calibri,Calibri_MSFontService,sans-serif" font-size="24" font-weight="400">SDK &amp;</text><text id="svg_48" x="70.284" y="305" stroke="null" font-family="Calibri,Calibri_MSFontService,sans-serif" font-size="24" font-weight="400">Libraries</text><text id="svg_49" x="26.394" y="140" stroke="null" font-family="Calibri,Calibri_MSFontService,sans-serif" font-size="24" font-weight="400">Vendor</text><text id="svg_50" x="97.201" y="140" stroke="null" font-family="Calibri,Calibri_MSFontService,sans-serif" font-size="24" font-weight="400">-</text><text id="svg_51" x="104.534" y="140" stroke="null" font-family="Calibri,Calibri_MSFontService,sans-serif" font-size="24" font-weight="400">specific</text><text id="svg_52" x="65.754" y="169" stroke="null" font-family="Calibri,Calibri_MSFontService,sans-serif" font-size="24" font-weight="400">helpers</text><path id="svg_53" fill="none" fill-rule="evenodd" stroke="#4472C4" stroke-miterlimit="8" stroke-width=".667" d="m225.5,460.5c-9.389,0 -17,-1.268 -17,-2.833l0,-41.834c0,-1.564 -7.611,-2.833 -17,-2.833c9.389,0 17,-1.268 17,-2.833l0,-41.834c0,-1.564 7.611,-2.833 17,-2.833"/><path id="svg_54" fill="none" fill-rule="evenodd" stroke="#4472C4" stroke-miterlimit="8" stroke-width=".667" d="m225.5,201.5c-9.389,0 -17,-1.268 -17,-2.833l0,-41.834c0,-1.564 -7.611,-2.833 -17,-2.833c9.389,0 17,-1.268 17,-2.833l0,-41.834c0,-1.564 7.611,-2.833 17,-2.833"/><path id="svg_55" fill="none" fill-rule="evenodd" stroke="#4472C4" stroke-miterlimit="8" stroke-width=".667" d="m225.5,355.5c-9.389,0 -17,-1.268 -17,-2.833l0,-66.334c0,-1.564 -7.611,-2.833 -17,-2.833c9.389,0 17,-1.268 17,-2.833l0,-66.334c0,-1.564 7.611,-2.833 17,-2.833"/><rect id="svg_56" width="255" height="39" x="794.5" y="249.5" fill="#FFF" stroke="#4472C4" stroke-miterlimit="8" stroke-width="1.333"/><text id="svg_57" x="852.108" y="276" stroke="null" font-family="Calibri,Calibri_MSFontService,sans-serif" font-size="24" font-weight="400">OTLP Exporter</text></g></svg>