<svg xmlns="http://www.w3.org/2000/svg" xmlns:svg="http://www.w3.org/2000/svg" id="svg3841" width="1000" height="390" overflow="hidden" version="1.1" style="overflow:hidden"><metadata id="metadata3845"/><defs id="defs3787"><clipPath id="clip0"><path id="path3784" d="M 150,160 H 1150 V 550 H 150 Z" style="clip-rule:evenodd;fill-rule:evenodd"/></clipPath></defs><g id="g3839" clip-path="url(#clip0)" transform="translate(-150,-160)"><rect id="rect3789" width="1150" height="550" x="0" y="0" style="fill:#2b0b98"/><text id="text3801" font-size="59" font-weight="400" transform="translate(218.97,386)" style="font-weight:400;font-size:59px;font-family:Calibri,Calibri_MSFontService,sans-serif;fill:#fff">Grain = <tspan id="tspan3791" x="184.633" y="0" style="fill:#f7b548">identity</tspan> <tspan id="tspan3793" x="381.087" y="0">+</tspan> <tspan id="tspan3795" x="423.587" y="0" style="fill:#28c2d1">behavior</tspan> <tspan id="tspan3797" x="646.447" y="0">[+</tspan> <tspan id="tspan3799" x="706.947" y="0" style="fill:#3e8eed">state</tspan> ]</text><path id="path3803" stroke-miterlimit="8" d="m 396,341 c 0,-14.359 1.94,-26 4.333,-26 h 86.334 c 2.393,0 4.333,-11.641 4.333,-26 0,14.359 1.94,26 4.333,26 h 86.334 c 2.393,0 4.333,11.641 4.333,26" style="fill:none;fill-rule:evenodd;stroke:#f7b548;stroke-width:2.33332992;stroke-miterlimit:8"/><text id="text3809" font-size="24" font-weight="400" transform="translate(365.697,263)" style="font-weight:400;font-size:24px;font-family:Consolas,Consolas_MSFontService,sans-serif;fill:#dfd8f7">User <tspan id="tspan3805" x="52.667" y="0" style="fill:#fff">/</tspan> <tspan id="tspan3807" x="65.833" y="0" style="fill:#fff">jane@email.com</tspan></text><path id="path3811" stroke-miterlimit="8" d="m 847,400 c 0,14.36 -1.94,26 -4.333,26 h -96.834 c -2.393,0 -4.333,11.641 -4.333,26 0,-14.359 -1.94,-26 -4.333,-26 H 640.333 C 637.94,426 636,414.359 636,400" style="fill:none;fill-rule:evenodd;stroke:#28c2d1;stroke-width:2.33332992;stroke-miterlimit:8"/><text id="text3823" font-size="24" font-weight="400" transform="translate(925.151,233)" style="font-weight:400;font-size:24px;font-family:Calibri,Calibri_MSFontService,sans-serif;fill:#fff">In <tspan id="tspan3813" x="18.667" y="0">-</tspan> <tspan id="tspan3815" x="26" y="0">memory</tspan> <tspan id="tspan3817" x="-3.553" y="29">o</tspan> <tspan id="tspan3819" x="9.113" y="29">r</tspan> <tspan id="tspan3821" x="22.947" y="29">persisted</tspan></text><path id="path3825" stroke-miterlimit="8" d="m 922,344 c 0,-14.359 1.94,-26 4.333,-26 h 48.834 c 2.393,0 4.333,-11.641 4.333,-26 0,14.359 1.94,26 4.333,26 h 48.837 c 2.39,0 4.33,11.641 4.33,26" style="fill:none;fill-rule:evenodd;stroke:#3e8eed;stroke-width:2.33332992;stroke-miterlimit:8"/><text id="text3837" font-size="24" font-weight="400" transform="translate(575.102,493)" style="font-weight:400;font-size:24px;font-family:Consolas,Consolas_MSFontService,sans-serif;fill:#c3f2f4">class <tspan id="tspan3827" x="79" y="0" style="fill:#dfd8f7">User</tspan> <tspan id="tspan3829" x="144.833" y="0" style="fill:#d4d4d4">:</tspan> <tspan id="tspan3831" x="171.167" y="0" style="fill:#dfd8f7">Grain</tspan> <tspan id="tspan3833" x="237" y="0" style="fill:#d4d4d4">,</tspan> <tspan id="tspan3835" x="263.333" y="0" style="fill:#dfd8f7">IUser</tspan></text></g></svg>