<svg xmlns="http://www.w3.org/2000/svg" xmlns:ev="http://www.w3.org/2001/xml-events" xmlns:xlink="http://www.w3.org/1999/xlink" width="944.564" height="539.627" class="st15" color-interpolation-filters="sRGB" viewBox="0 0 708.423 404.72" xml:space="preserve" style="background-color:#fff"><style type="text/css">.st1{visibility:hidden}.st1,.st2{fill:none;stroke:none;stroke-linecap:round;stroke-linejoin:round;stroke-width:.5}.st3{fill:#512bd4}.st3,.st4,.st5{stroke:#512bd4;stroke-linecap:round;stroke-linejoin:round;stroke-width:.5}.st4{fill:#5b9bd5}.st5{stroke-dasharray:3.5,2.5}.st6{fill:#fff;font-family:Calibri;font-size:1.00001em;font-weight:700}.st7,.st8{stroke:#512bd4}.st7{marker-end:url(#mrkr4-50);stroke-linecap:round;stroke-linejoin:round;stroke-width:.5}.st8{fill:#512bd4;fill-opacity:1;stroke-opacity:1;stroke-width:.13368983957219}.st9{fill:#fff;stroke:none;stroke-linecap:butt;stroke-width:7.2}.st10{fill:#7030a0;font-family:Calibri;font-size:.916672em}.st11,.st12{stroke:#512bd4;stroke-linecap:round;stroke-linejoin:round;stroke-width:.5}.st11{fill:#a5a5a5;fill-opacity:0}.st12{fill:#fff}.st13{fill:#7030a0;font-family:Calibri;font-size:.916672em;font-weight:700}.st14{marker-end:url(#mrkr3-158);stroke:#512bd4;stroke-dasharray:3.5,2.5;stroke-linecap:round;stroke-linejoin:round;stroke-width:.5}.st15{fill:none;fill-rule:evenodd;font-size:12px;overflow:visible;stroke-linecap:square;stroke-miterlimit:3}</style><defs id="Markers"><g id="lend4"><path d="M 2 1 L 0 0 L 2 -1 L 2 1" style="stroke:none"/></g><marker id="mrkr4-50" class="st8" markerUnits="strokeWidth" orient="auto" overflow="visible" refX="-14.96"><use transform="scale(-7.48,-7.48)" xlink:href="#lend4"/></marker><g id="lend3"><path d="M 2 1 L 0 0 L 2 -1" style="stroke-linecap:round;stroke-linejoin:round;fill:none"/></g><marker id="mrkr3-158" class="st8" markerUnits="strokeWidth" orient="auto" overflow="visible"><use transform="scale(-7.48,-7.48)" xlink:href="#lend3"/></marker></defs><g><title>Page-1</title><g id="group1006-1" transform="translate(0.25,-10.7198)"><title>Corners</title><g id="shape1006-2"><rect width="707.923" height="393.75" x="0" y="10.97" class="st1"/></g><g id="group1007-4" transform="translate(707.923,415.69) rotate(180)"><title>Sheet.1007</title><g id="shape1008-5"><title>Sheet.1008</title><path d="M0 404.72 L13.5 404.72 L13.5 402.47 L2.25 402.47 L2.25 391.22 L0 391.22 L0 404.72 Z" class="st2"/></g><g id="shape1009-7" transform="translate(694.423,-380.25)"><title>Sheet.1009</title></g><g id="shape1010-9" transform="translate(694.423,-380.25)"><title>Sheet.1010</title><path d="M13.5 391.22 L0 391.22 L0 393.47 L11.25 393.47 L11.25 404.72 L13.5 404.72 L13.5 391.22 Z" class="st2"/></g><g id="shape1011-11"><title>Sheet.1011</title><path d="M707.92 404.72 L694.42 404.72 L694.42 402.47 L705.67 402.47 L705.67 391.22 L707.92 391.22 L707.92 404.72 ZM0 10.97 L0 24.47 L2.25 24.47 L2.25 13.22 L13.5 13.22 L13.5 10.97 L0 10.97 Z" class="st2"/></g><g id="shape1012-13" transform="translate(694.423,0)"><title>Sheet.1012</title></g><g id="shape1007-15"><rect width="707.923" height="393.75" x="0" y="10.97" class="st1"/></g></g><g id="shape1013-17" transform="translate(0,-371.346)"><title>Sheet.1013</title><desc>Hosting Shutdown Sequence</desc><rect width="707.923" height="22.404" x="0" y="382.316" class="st1"/></g></g><g id="group1-19" transform="translate(9.25,-329.4)"><title>Actor lifeline</title><desc>User</desc><g id="shape2-20"><title>Sheet.2</title><rect width="54" height="25.2" x="0" y="379.52" class="st3"/></g><g id="shape3-22" transform="translate(18,-28.8)"><title>Sheet.3</title><path d="M3.6 404.72 L3.6 386.72 L3.6 393.92 L0 393.92 L0 379.52 L1.8 377.72 L16.2 377.72 L18 379.52 L18 393.92 L14.4 393.92 L14.4 386.72 L14.4 404.72 L9 404.72 L9 390.32 L9 404.72 L3.6 404.72 ZM12.6 372.32 A3.6 3.6 -180 1 0 5.4 372.32 A3.6 3.6 -180 1 0 12.6 372.32 Z" class="st4"/></g><g id="shape4-24" transform="translate(18,327.15)"><title>Sheet.4</title></g><g id="shape5-26" transform="translate(431.72,404.72) rotate(90)"><title>Sheet.5</title><path d="M0 404.72 L309.15 404.72" class="st5"/></g><g id="shape1-29"><rect width="54" height="25.2" x="0" y="379.52" class="st3"/><text x="15.54" y="395.72" class="st6">User</text></g></g><g id="group6-32" transform="translate(91.6735,-329.4)"><title>Object lifeline</title><desc>ConsoleLifetime</desc><g id="shape7-33" transform="translate(22.5,0)"><title>Sheet.7</title><rect width="54" height="25.2" x="0" y="379.52" class="st3"/></g><g id="shape8-35" transform="translate(40.5,-28.8)"><title>Sheet.8</title><path d="M9 404.72 a0 0 0 1 1 0 0 a0 0 0 1 1 0 0 Z" class="st3"/></g><g id="shape9-37" transform="translate(33,280.8)"><title>Sheet.9</title></g><g id="shape10-39" transform="translate(454.22,404.72) rotate(90)"><title>Sheet.10</title><path d="M0 404.72 L262.8 404.72" class="st5"/></g><g id="shape6-42"><rect width="99" height="25.2" x="0" y="379.52" class="st3"/><text x="9.38" y="395.72" class="st6">ConsoleLifetime</text></g></g><g id="shape11-45" transform="translate(36.25,-302.4)"><title>Message</title><desc>CTRL+C / SIGTERM</desc><path d="M0 395.72 L97.44 395.72" class="st7"/><rect width="83.264" height="13.2" x="10.83" y="389.12" class="st9"/><text x="10.83" y="399.02" class="st10">CTRL+C / SIGTERM</text></g><g id="group12-53" transform="translate(208.673,-329.4)"><title>Object lifeline.12</title><desc>ApplicationLifetime</desc><g id="shape13-54" transform="translate(31.5,0)"><title>Sheet.13</title><rect width="54" height="25.2" x="0" y="379.52" class="st3"/></g><g id="shape14-56" transform="translate(49.5,-28.8)"><title>Sheet.14</title><path d="M9 404.72 a0 0 0 1 1 0 0 a0 0 0 1 1 0 0 Z" class="st3"/></g><g id="shape15-58" transform="translate(39,280.8)"><title>Sheet.15</title></g><g id="shape16-60" transform="translate(463.22,404.72) rotate(90)"><title>Sheet.16</title><path d="M0 404.72 L262.8 404.72" class="st5"/></g><g id="shape12-63"><rect width="117" height="25.2" x="0" y="379.52" class="st3"/><text x="9.62" y="395.72" class="st6">ApplicationLifetime</text></g></g><g id="shape19-66" transform="translate(141.173,-284.4)"><title>Message.19</title><desc>StopApplication()</desc><path d="M0 395.72 L118.52 395.72" class="st7"/><rect width="77.671" height="13.2" x="24.164" y="389.12" class="st9"/><text x="24.16" y="399.02" class="st10">StopApplication()</text></g><g id="group21-73" transform="translate(348.173,-329.4)"><title>Object lifeline.21</title><desc>WaitForShutdownAsync</desc><g id="shape22-74" transform="translate(38.25,0)"><title>Sheet.22</title><rect width="54" height="25.2" x="0" y="379.52" class="st3"/></g><g id="shape23-76" transform="translate(56.25,-28.8)"><title>Sheet.23</title><path d="M9 404.72 a0 0 0 1 1 0 0 a0 0 0 1 1 0 0 Z" class="st3"/></g><g id="shape24-78" transform="translate(43.5,329.4)"><title>Sheet.24</title></g><g id="shape25-80" transform="translate(469.97,404.72) rotate(90)"><title>Sheet.25</title><path d="M0 404.72 L311.4 404.72" class="st5"/></g><g id="shape21-83"><rect width="130.5" height="25.2" x="0" y="379.52" class="st3"/><text x="5.09" y="395.72" class="st6">WaitForShutdownAsync</text></g></g><g id="shape26-86" transform="translate(267.327,-276.75)"><title>Message.26</title><desc>Raise &quot;ApplicationStopping&quot;</desc><path d="M0 395.72 L138.62 395.72" class="st7"/><rect width="125.109" height="13.2" x="10.494" y="389.12" class="st9"/><text x="10.49" y="399.02" class="st10">Raise &quot;ApplicationStopping&quot;</text></g><g id="group27-93" transform="translate(510.173,-329.4)"><title>Object lifeline.27</title><desc>Host</desc><g id="shape28-94"><title>Sheet.28</title><rect width="54" height="25.2" x="0" y="379.52" class="st3"/></g><g id="shape29-96" transform="translate(18,-28.8)"><title>Sheet.29</title><path d="M9 404.72 a0 0 0 1 1 0 0 a0 0 0 1 1 0 0 Z" class="st3"/></g><g id="shape30-98" transform="translate(18,324.9)"><title>Sheet.30</title></g><g id="shape31-100" transform="translate(431.72,404.72) rotate(90)"><title>Sheet.31</title><path d="M0 404.72 L306.9 404.72" class="st5"/></g><g id="shape27-103"><rect width="54" height="25.2" x="0" y="379.52" class="st3"/><text x="15.52" y="395.72" class="st6">Host</text></g></g><g id="shape32-106" transform="translate(413.423,-211.5)"><title>Message.32</title><desc>StopAsync()</desc><path d="M0 395.72 L123.02 395.72" class="st7"/><rect width="53.066" height="13.2" x="38.717" y="389.12" class="st9"/><text x="38.72" y="399.02" class="st10">StopAsync()</text></g><g id="group33-113" transform="translate(528.173,-112.275)"><title>Loop fragment</title><g id="shape33-114"><rect width="130.5" height="92.475" x="0" y="312.245" class="st11"/></g><g id="shape34-116" transform="translate(0,-71.271)"><title>Sheet.34</title><desc>foreach IHostedService</desc><path d="M0 404.72 L108.68 404.72 L115.88 397.52 L115.88 383.52 L0 383.52 L0 404.72 Z" class="st12"/><text x="4" y="397.42" class="st13">foreach IHostedService</text></g></g><g id="group36-119" transform="translate(600.173,-329.4)"><title>Object lifeline.36</title><desc>IHostedService</desc><g id="shape37-120" transform="translate(22.5,0)"><title>Sheet.37</title><rect width="54" height="25.2" x="0" y="379.52" class="st3"/></g><g id="shape38-122" transform="translate(40.5,-28.8)"><title>Sheet.38</title><path d="M9 404.72 a0 0 0 1 1 0 0 a0 0 0 1 1 0 0 Z" class="st3"/></g><g id="shape39-124" transform="translate(33,280.8)"><title>Sheet.39</title></g><g id="shape40-126" transform="translate(454.22,404.72) rotate(90)"><title>Sheet.40</title><path d="M0 404.72 L262.8 404.72" class="st5"/></g><g id="shape36-129"><rect width="99" height="25.2" x="0" y="379.52" class="st3"/><text x="12.34" y="395.72" class="st6">IHostedService</text></g></g><g id="shape42-132" transform="translate(537.048,-146.25)"><title>Message.42</title><desc>StopAsync()</desc><path d="M0 395.72 L105.15 395.72" class="st7"/><rect width="53.066" height="13.2" x="29.779" y="389.12" class="st9"/><text x="29.78" y="399.02" class="st10">StopAsync()</text></g><g id="shape43-139" transform="translate(537.048,-92.25)"><title>Message.43</title><desc>NotifyStopped()</desc><path d="M0 395.72 L-262.29 395.72" class="st7"/><rect width="71.468" height="13.2" x="-170.62" y="389.12" class="st9"/><text x="-170.62" y="399.02" class="st10">NotifyStopped()</text></g><g id="shape44-146" transform="translate(537.048,-72)"><title>Message.44</title><desc>StopAsync()</desc><path d="M0 395.72 L-392.9 395.72" class="st7"/><rect width="53.066" height="13.2" x="-226.721" y="389.12" class="st9"/><text x="-226.72" y="399.02" class="st10">StopAsync()</text></g><g id="shape1000-153" transform="translate(141.173,-248.4)"><title>Return Message.1000</title><desc>Cancel = true</desc><path d="M0 413.72 L-104.92 413.72" class="st14"/><rect width="58.787" height="13.2" x="-81.855" y="407.12" class="st9"/><text x="-81.86" y="417.02" class="st10">Cancel = true</text></g><g id="shape1001-161" transform="translate(404.423,-273.375)"><title>Self Message.1001</title><desc>Resume a waiting &quot;await&quot; asynchronously</desc><path d="M9 404.72 L27 404.72 L27 449.72 L16.48 449.72" class="st7"/><rect width="186.817" height="13.2" x="-84.409" y="414.095" class="st9"/><text x="-84.41" y="424" class="st10">Resume a waiting &quot;await&quot; asynchronously</text></g><g id="shape1002-168" transform="translate(413.423,-248.4)"><title>Return Message.1002</title><path d="M0 413.72 L-146.25 413.72" class="st14"/></g><g id="shape1003-173" transform="translate(267.173,-230.4)"><title>Return Message.1003</title><path d="M0 395.72 L-126 395.72" class="st14"/></g><g id="shape1004-178" transform="translate(537.173,-50.4)"><title>Return Message.1004</title><path d="M0 395.72 L-123.75 395.72" class="st14"/></g><g id="shape1005-183" transform="translate(413.423,-32.4)"><title>Return Message.1005</title><desc>Resume waiting &quot;Main&quot; method</desc><path d="M0 395.72 L-378 395.72" class="st14"/><rect width="143.172" height="13.2" x="-260.586" y="389.12" class="st9"/><text x="-260.59" y="399.02" class="st10">Resume waiting &quot;Main&quot; method</text></g></g></svg>